<?xml version="1.0" encoding="UTF-8" standalone="no"?>
<!-- Created with Inkscape (http://www.inkscape.org/) -->

<svg
   version="1.1"
   id="svg2"
   width="126.71506"
   height="64.547768"
   viewBox="0 0 126.71506 64.547768"
   xmlns:xlink="http://www.w3.org/1999/xlink"
   xmlns="http://www.w3.org/2000/svg"
   xmlns:svg="http://www.w3.org/2000/svg">
  <defs
     id="defs6">
    <linearGradient
       id="linearGradient8658">
      <stop
         style="stop-color:#ba9964;stop-opacity:1;"
         offset="0"
         id="stop8654" />
      <stop
         style="stop-color:#f9daa8;stop-opacity:1"
         offset="1"
         id="stop8656" />
    </linearGradient>
    <linearGradient
       xlink:href="#linearGradient8658"
       id="linearGradient9152"
       gradientUnits="userSpaceOnUse"
       x1="5.4312863"
       y1="40.1152"
       x2="104.97086"
       y2="0.058848962" />
    <linearGradient
       xlink:href="#linearGradient8658"
       id="linearGradient9154"
       gradientUnits="userSpaceOnUse"
       x1="5.4312863"
       y1="40.1152"
       x2="104.97086"
       y2="0.058848962" />
    <linearGradient
       xlink:href="#linearGradient8658"
       id="linearGradient9156"
       gradientUnits="userSpaceOnUse"
       x1="5.4312863"
       y1="40.1152"
       x2="104.97086"
       y2="0.058848962" />
    <linearGradient
       xlink:href="#linearGradient8658"
       id="linearGradient9158"
       gradientUnits="userSpaceOnUse"
       x1="5.4312863"
       y1="40.1152"
       x2="104.97086"
       y2="0.058848962" />
    <linearGradient
       xlink:href="#linearGradient8658"
       id="linearGradient9160"
       gradientUnits="userSpaceOnUse"
       x1="5.4312863"
       y1="40.1152"
       x2="104.97086"
       y2="0.058848962" />
    <linearGradient
       xlink:href="#linearGradient8658"
       id="linearGradient9162"
       gradientUnits="userSpaceOnUse"
       x1="5.4312863"
       y1="40.1152"
       x2="104.97086"
       y2="0.058848962" />
  </defs>
  <g
     id="g8"
     transform="translate(58.568714,-25.240652)">
    <g
       id="g9189"
       transform="translate(-64,20)">
      <path
         style="fill:url(#linearGradient9154);fill-opacity:1;stroke-width:0.32"
         d="M 6.2176666,53.657191 C 6.1184477,53.398631 6.2047162,52.559988 6.4093731,51.79354 7.0368973,49.443447 11.55907,41.015338 13.17761,39.179377 13.497924,38.816033 13.76,38.411393 13.76,38.28018 c 0,-0.131216 0.499371,-0.913936 1.109713,-1.739376 0.610342,-0.825443 1.578703,-2.148803 2.151914,-2.940803 2.433108,-3.361805 4.627815,-5.115544 5.214286,-4.166614 0.179514,0.290461 -0.323871,1.560171 -0.763818,1.926613 -0.105652,0.088 -0.456534,0.473085 -0.779738,0.855741 -0.489307,0.579319 -0.504312,0.683514 -0.08967,0.622656 0.565209,-0.08295 4.879251,-3.872771 6.586311,-5.785968 C 27.811051,26.355264 28.68,25.383006 29.12,24.891856 c 2.128977,-2.37647 3.258816,-4.079164 3.717005,-5.601614 0.239129,-0.794559 0.432947,-1.94902 -0.643568,-2.056163 C 23.794608,16.398165 13.535526,30.547479 5.884633,34.880001 5.3177018,35.201041 5.1527999,34.005671 6.16,33.084157 13.037973,26.791316 22.328632,16.497096 32.088227,15.459684 c 2.3345,-0.248149 3.130723,0.41956 3.181325,2.640995 0.05498,2.413843 -1.380531,4.59665 -6.196377,9.422057 -2.349993,2.354659 -2.577629,3.045858 -0.82886,2.516766 2.618366,-0.79219 4.715685,0.09616 4.715685,1.997395 0,1.268265 0.514442,1.414832 1.72504,0.491465 1.275565,-0.972921 3.607642,-3.389141 4.321638,-4.477564 1.80098,-2.745434 5.667898,-6.309556 6.232752,-5.744702 0.472871,0.47287 0.106445,1.255157 -1.31943,2.816881 -2.405331,2.634495 -3.613114,4.236688 -5.262518,6.981043 -1.596852,2.656915 -1.849808,3.547657 -1.090247,3.839126 0.544221,0.208839 2.689322,-0.903437 4.056058,-2.103145 0.551385,-0.484 1.101728,-0.88 1.222985,-0.88 0.335834,0 2.790989,-2.626147 3.196349,-3.418963 0.196554,-0.38443 0.245078,-1.059461 0.357373,-1.466258 1.659452,-6.011466 6.174306,-11.280525 9.12,-13.973734 1.798813,-1.644631 4.032362,-3.218128 4.788048,-2.590965 0.750294,0.622688 0.622531,1.041071 -1.108048,3.628501 -0.88,1.315709 -2.002531,3.193632 -2.057723,3.28627 -0.961887,1.614512 -3.655624,5.418059 -5.372795,7.327273 -2.976816,3.309737 -3.440896,3.902708 -3.444964,4.401779 -0.01232,1.511495 2.992215,0.609866 6.30832,-1.893056 1.883325,-1.421493 4.682242,-4.371397 4.887162,-4.705262 2.199664,-3.583793 4.539824,-7.458608 7.004826,-10.563752 2.196204,-2.766541 3.910533,-6.3625536 6.435702,-7.6446918 0.89884,-0.4563802 1.745237,0.6330476 1.422979,1.7679427 -0.88277,3.1088451 -2.9528,5.5975751 -4.623897,8.2138781 -0.05656,0.08855 -0.372298,0.623037 -0.826848,1.151037 -0.454554,0.528 -1.138378,1.361534 -1.51961,1.852297 -0.381235,0.490764 -1.820128,2.073885 -3.197542,3.518047 -2.249405,2.358408 -2.48552,2.723692 -2.319037,3.587703 0.21656,1.123909 1.244256,2.084931 2.218877,2.074926 2.470364,-0.02536 9.325625,-5.302849 10.948486,-8.428638 1.628307,-3.136274 3.883338,-5.709727 5.096064,-5.81565 0.586378,-0.05122 1.055738,0.507933 0.90624,1.079609 -0.08123,0.310619 -1.07711,1.565324 -2.213072,2.788234 -2.028877,2.184173 -3.46567,4.470191 -3.140381,4.996521 0.35457,0.573707 2.327879,0.217697 4.45624,-0.803963 3.250912,-1.560506 4.191933,-2.461312 4.610618,-4.413572 0.192208,-0.896235 0.714262,-2.048592 1.046243,-2.632516 1.532508,-2.695538 4.11706,-5.2578622 6.839213,-5.3229979 2.0324,0 1.142006,2.0703069 -2.580339,5.9996949 -1.410618,1.489082 -2.612823,2.836499 -2.671562,2.994261 -0.358637,0.963224 4.441478,1.020934 8.231171,0.09896 3.932675,-0.956758 11.457029,-4.296717 12.110049,-5.375488 0.3266,-0.539532 1.36558,-0.90684 1.36558,-0.482769 0,0.542026 -3.16083,3.415047 -3.92395,3.566657 -0.21783,0.04328 -0.46805,0.161965 -0.55605,0.263751 -0.61022,0.705823 -4.949331,2.424211 -8.64,3.421639 -2.315043,0.625656 -3.841267,0.826208 -6.4,0.840985 -1.848,0.01067 -3.6532,-0.09443 -4.011558,-0.233567 -0.487744,-0.18937 -0.966716,-0.0025 -1.905069,0.743196 -1.705756,1.355553 -6.18537,3.515209 -7.363373,3.549923 -0.528,0.01556 -1.49528,-0.07428 -2.149507,-0.199643 -1.136755,-0.217825 -1.28577,-0.137452 -3.36,1.812233 -1.193773,1.122092 -2.51201,2.232327 -2.929418,2.467188 -1.161904,0.653763 -3.34975,1.244587 -4.154166,1.121825 -0.994403,-0.151757 -2.661981,-1.043419 -3.284445,-1.756209 -0.860778,-0.985691 -1.374288,-0.775838 -4.96368,2.028486 -3.935485,3.074721 -6.615933,4.020913 -8.438784,2.978878 -0.44,-0.251527 -0.906956,-0.462443 -1.037677,-0.46866 -0.130722,-0.0062 -1.403097,1.061805 -2.827497,2.373424 C 38.33304,39.163194 35.2,39.663069 35.2,35.977143 c 0,-0.779427 -0.120333,-1.417142 -0.267405,-1.417142 -0.147072,0 -1.335072,1.021248 -2.64,2.26944 -4.982587,4.765952 -11.423171,10.082333 -12.874264,10.627059 -1.477582,0.554672 -3.23556,-0.455872 -3.588498,-2.062787 -0.303064,-1.379844 0.277752,-1.873194 2.209349,-1.876637 3.706818,-0.0066 9.431292,-4.193235 11.87655,-8.685981 0.718186,-1.319542 0.816688,-1.749302 0.540088,-2.356371 -0.352264,-0.773138 -0.723876,-0.815576 -2.889191,-0.329946 -1.94029,0.435162 -5.54207,2.346634 -7.867358,4.175223 -5.072853,3.989251 -5.420421,4.387536 -8.361403,9.581459 -0.691827,1.221802 -1.8528187,3.525802 -2.579981,5.12 -1.2697008,2.783635 -2.1378131,3.684387 -2.5402204,2.635731 z M 49.871037,26.282466 C 51.219046,24.600575 52.25174,23.583609 53.17968,22.413273 54.357137,20.928241 55.242564,19.746385 56.16,18.24 c 0.78826,-1.294283 2.878502,-4.510605 1.973648,-4.053018 -3.516933,1.778522 -8.84597,7.792405 -9.173648,11.998893 -0.06557,0.841716 0.04363,0.848892 0.911037,0.09659 z M 66.340448,17.84 c 1.345306,-1.490402 2.986463,-3.542003 3.90849,-5.110904 0.843073,-1.434555 2.503185,-3.2264059 1.717939,-3.3821819 C 71.414418,9.2373181 71.120858,9.7563438 69.75823,11.52 c -0.611913,0.792 -1.224672,1.584 -1.361686,1.76 -0.137014,0.176 -0.612477,0.752 -1.056586,1.28 C 66.481827,15.580238 64.32,18.988996 64.32,19.32186 c 0,0.434159 0.498777,0.203929 2.020448,-1.48186 z m 25.008474,-6.285091 c 0.19871,-0.626081 0.148496,-0.650482 -0.685837,-0.333269 -2.24164,1.008899 -3.368838,2.643373 -4.339287,4.653727 -0.21575,0.446941 0.148967,1.149688 0.609536,0.764633 0.946087,-0.790968 3.575118,-2.871497 4.415588,-5.085091 z"
         id="path1257" />
      <circle
         style="fill:url(#linearGradient9156);fill-opacity:1;stroke-width:4.33428;stroke-linecap:round;stroke-linejoin:round;paint-order:markers stroke fill;stop-color:#000000"
         id="path3018"
         cx="81.322929"
         cy="8.4858189"
         r="1.2001619" />
      <circle
         style="fill:url(#linearGradient9158);fill-opacity:1;stroke-width:4.33428;stroke-linecap:round;stroke-linejoin:round;paint-order:markers stroke fill;stop-color:#000000"
         id="path3018-3"
         cx="46.071236"
         cy="17.828566"
         r="1.2001619" />
    </g>
    <g
       id="g9194"
       transform="translate(-48.432547,14.798675)">
      <path
         style="fill:url(#linearGradient9152);fill-opacity:1;stroke-width:0.32"
         d="m 31.447962,69.575184 c 0.622053,-0.697165 1.374078,-1.807496 1.931002,-2.160573 3.999317,-2.535474 16.040697,-9.038569 16.643168,-15.495503 0.209987,-2.250522 -0.475234,-4.676038 -4.231905,-4.625038 -8.439547,0.114575 -15.31873,8.570619 -22.969623,12.903141 -0.566931,0.32104 -0.731833,-0.87433 0.275367,-1.795844 6.877973,-6.292841 12.85092,-11.659061 22.589046,-12.881692 4.09485,-0.514113 6.976539,2.99751 6.769662,5.20987 -1.135735,12.145616 -13.363042,15.557569 -19.12254,19.315946 -1.821183,1.188418 -2.52725,0.250416 -1.884177,-0.470307 z"
         id="path3556" />
      <path
         style="fill:url(#linearGradient9160);fill-opacity:1;stroke-width:0.32"
         d="m 25.550341,74.565361 c -0.09922,-0.25856 -0.01295,-1.097203 0.191706,-1.863651 0.627524,-2.350093 5.149697,-10.778202 6.768237,-12.614163 0.320314,-0.363344 0.58239,-0.767984 0.58239,-0.899197 0,-0.131216 0.499371,-0.913936 1.109713,-1.739376 0.610342,-0.825443 1.578703,-2.148803 2.151914,-2.940803 2.433108,-3.361805 4.627815,-5.115544 5.214286,-4.166614 0.179514,0.290461 -0.323871,1.560171 -0.763818,1.926613 -2.852638,3.978056 -7.039651,9.589955 -10.134227,14.54146 -0.691827,1.221802 -1.852819,3.525802 -2.579981,5.12 -1.269701,2.783635 -2.137813,3.684387 -2.54022,2.635731 z"
         id="path4425" />
      <path
         id="path1061"
         style="fill:url(#linearGradient9162);fill-opacity:1;stroke-width:0.290144"
         d="m 109.88281,33.443359 c -0.24093,-0.0038 -0.55235,0.126973 -0.93359,0.398438 -0.46548,0.33145 -2.06911,2.040876 -3.5625,3.798828 -1.49338,1.757952 -2.82206,3.197266 -2.95313,3.197266 -0.1311,0 -0.15418,-0.564349 -0.0508,-1.253907 0.24665,-1.644773 -0.27751,-3.588277 -1.0332,-3.828125 -0.35511,-0.112709 -0.96513,0.05624 -1.58203,0.4375 -1.26279,0.780445 -3.95796,3.711902 -5.33594,5.804688 l -1.050781,1.595703 -0.144531,-2.580078 c -0.22637,-4.027528 -1.017267,-4.094664 -4.279297,-0.363281 -1.62656,1.860591 -3.012655,3.649953 -7.515625,9.705078 -1.88152,2.53006 -2.71289,2.910834 -2.71289,1.240234 0,-0.68464 1.672753,-4.29678 3.064453,-6.617187 0.43767,-0.729739 0.492267,-1.05158 0.242187,-1.451172 -0.7061,-1.128268 -1.857595,-0.456208 -3.634765,2.125 -3.39697,4.933824 -8.680802,11.433594 -9.294922,11.433594 -0.82881,-10e-7 0.895439,-4.740277 2.693359,-7.404297 0.88222,-1.3072 1.016443,-2.454257 0.314453,-2.685547 -0.20724,-0.06828 -1.382348,0.917113 -2.611328,2.189453 -0.980697,1.097652 -1.772934,2.096878 -2.419922,2.996094 -1.737445,1.91153 -3.491538,3.805825 -3.533203,3.746093 -0.07274,-0.104282 -0.130859,-0.513943 -0.130859,-0.910156 0,-0.46768 -0.349329,-1.135872 -0.992188,-1.90625 -0.733368,-0.878836 -0.988281,-1.413423 -0.988281,-2.05664 -10e-7,-0.808706 -0.500455,-1.521485 -1.066406,-1.521485 -0.117482,0 -0.470411,0.630431 -0.785156,1.400391 -0.314746,0.769959 -1.009372,1.913836 -1.544922,2.542968 -1.034392,1.215148 -11.521905,8.665224 -11.988792,8.665224 -2.81587,-2.214441 -7.794689,2.913103 -7.794689,5.085485 0.248589,0.167512 7.465083,-2.357374 7.906437,-2.458552 1.559902,-0.357599 10.395803,-6.473684 12.873137,-9.641766 0.703074,-0.899106 0.884916,-0.910153 1.638672,-0.08594 0.85544,0.9354 0.967847,1.836894 0.417969,3.361328 -0.437402,1.212616 -0.339782,2.603012 0.193359,2.748047 0.380941,0.103627 1.566065,-0.892811 2.478516,-2.085938 0.164314,-0.214857 0.868641,-1.124145 1.666016,-2.128906 0.468366,-0.499627 0.848649,-0.990822 1.142578,-1.421875 0.236476,-0.28868 0.463789,-0.557971 0.679687,-0.8125 -0.384523,1.441595 -0.470851,3.490282 -0.15625,4.078125 0.2517,0.47031 0.60689,0.626953 1.41211,0.626953 0.94625,0 1.283509,-0.221219 2.818359,-1.855469 0.95903,-1.02114 2.330718,-2.648054 3.048828,-3.615234 0.7181,-0.96719 1.403758,-1.765484 1.523438,-1.771485 0.11971,-0.0064 0.216797,0.576822 0.216797,1.294922 0,1.57919 0.814345,2.606441 1.828124,2.306641 1.09493,-0.3238 2.60046,-1.684373 4.5,-4.070313 1.006371,-1.26405 2.638574,-3.316696 3.626954,-4.560546 2.49132,-3.135283 4.289944,-5.136719 4.615234,-5.136719 0.31939,0 0.118811,1.116937 -0.667969,3.730469 -0.91218,3.030061 -0.673219,4.394531 0.769531,4.394531 0.93916,0 2.069444,-1.031596 2.470704,-2.253906 0.19563,-0.59593 0.662655,-1.570768 1.037114,-2.166016 0.37444,-0.595251 0.67968,-1.146703 0.67968,-1.226563 0,-0.298507 2.08322,-3.386459 2.95117,-4.375 0.49565,-0.564508 1.16295,-1.167822 1.48438,-1.339843 0.563,-0.301307 0.579,-0.252094 0.39258,1.333984 -0.10642,0.905514 -0.52438,2.455278 -0.92774,3.443359 -1.37045,3.357138 -1.22409,5.236928 0.36328,4.679688 0.60706,-0.2131 1.42323,-1.245994 3.20313,-4.050781 3.40357,-5.36336 4.75568,-6.255085 4.50781,-2.972657 -0.0982,1.300298 -0.0103,1.647091 0.58985,2.326172 0.38785,0.438843 0.89038,0.796875 1.11718,0.796875 0.6071,0 2.84425,-2.437535 4.58203,-4.992187 1.6588,-2.438561 1.82334,-2.916241 2.38086,-3.277344 1.18301,-0.766232 1.41792,-2.616977 -0.14257,-2.164062 -0.30415,0.08828 -1.52753,1.894186 -2.91993,3.689453 -1.39239,1.795267 -2.66589,3.263672 -2.83007,3.263672 -0.31471,0 -0.12011,-2.309048 0.33007,-3.917969 0.62811,-2.244828 0.54702,-3.465014 -0.17578,-3.476563 z" />
    </g>
  </g>
</svg>
